<?xml version="1.0" standalone="no"?>
<!DOCTYPE svg PUBLIC "-//W3C//DTD SVG 20010904//EN"
 "http://www.w3.org/TR/2001/REC-SVG-20010904/DTD/svg10.dtd">
<svg version="1.0" xmlns="http://www.w3.org/2000/svg"
 width="330.000000pt" height="490.000000pt" viewBox="0 0 330.000000 490.000000"
 preserveAspectRatio="xMidYMid meet">

<g transform="translate(0.000000,490.000000) scale(0.100000,-0.100000)"
fill="#000000" stroke="none">
<path d="M0 3339 c0 -1105 3 -1558 11 -1554 12 8 59 -33 59 -51 0 -7 -11 -21
-25 -32 -14 -11 -25 -25 -25 -31 0 -6 -4 -11 -10 -11 -7 0 -10 -283 -10 -830
l0 -830 1650 0 1650 0 0 993 0 994 -92 64 c-117 82 -167 111 -179 104 -4 -3
-21 1 -36 9 -16 8 -24 15 -20 16 5 0 17 -5 29 -11 11 -6 22 -8 25 -5 3 3 -9
12 -28 20 -27 12 -31 16 -17 21 19 7 112 -44 183 -100 22 -17 61 -46 87 -64
l48 -32 0 1446 0 1445 -514 0 -514 -1 -5 -26 c-3 -15 -1 -67 3 -116 7 -67 13
-92 27 -103 17 -12 17 -13 1 -14 -27 0 -23 -40 3 -40 23 0 23 -16 2 -269 -4
-52 -2 -72 5 -67 7 4 6 -9 -3 -35 -17 -47 -20 -119 -5 -119 5 0 7 7 3 16 -4
12 -1 15 13 12 12 -2 18 -11 16 -22 -2 -10 1 -15 7 -12 5 4 12 2 16 -4 6 -9
-10 -14 -42 -13 -7 1 -13 -6 -13 -14 0 -8 5 -11 12 -7 6 4 16 1 22 -7 6 -8 20
-14 31 -14 13 0 20 -7 20 -20 0 -14 -6 -20 -22 -19 -20 0 -23 -4 -23 -40 0
-25 8 -51 20 -66 11 -14 20 -20 19 -15 0 6 -6 19 -14 29 -23 31 -18 46 14 46
17 0 32 -4 35 -9 3 -5 16 -7 29 -4 22 5 22 5 2 -10 -14 -11 -24 -12 -32 -5 -9
8 -13 7 -13 -3 0 -11 -2 -11 -10 1 -9 13 -10 13 -10 0 1 -26 26 -50 54 -50 15
0 29 -7 33 -15 7 -21 4 -23 -37 -29 -86 -11 -91 -30 -10 -34 l60 -3 0 41 c0
33 3 41 17 38 16 -3 31 -36 39 -91 3 -22 -1 -29 -22 -37 -33 -13 -34 -13 -34
5 0 19 -14 19 -31 -1 -9 -11 -10 -17 -1 -23 6 -4 8 -12 3 -20 -5 -7 -13 -11
-19 -7 -6 3 -8 -2 -5 -13 3 -10 0 -22 -7 -26 -8 -5 -6 -12 6 -26 16 -18 16
-19 -14 -19 -23 0 -32 -5 -33 -17 -1 -12 -4 -10 -9 7 -6 20 -8 16 -9 -23 -1
-27 3 -46 7 -43 5 3 6 -8 4 -24 -2 -17 -8 -27 -13 -24 -5 3 -9 -5 -9 -18 0
-18 2 -20 10 -8 7 11 10 7 10 -17 0 -23 -5 -33 -15 -33 -19 0 -19 -5 2 -36 14
-22 15 -29 3 -47 -9 -15 -10 -22 -1 -25 6 -2 11 -15 11 -28 0 -17 -6 -24 -20
-24 -11 0 -20 -7 -20 -15 0 -8 9 -15 20 -15 13 0 20 -7 20 -20 0 -13 -7 -20
-20 -20 -11 0 -20 -7 -20 -15 0 -8 9 -15 20 -15 16 0 20 -7 20 -35 0 -32 -2
-35 -30 -35 -16 0 -30 -4 -30 -10 0 -10 7 -12 45 -14 19 -1 20 -10 25 -141 3
-77 1 -145 -3 -152 -12 -17 -18 -413 -6 -413 5 0 9 7 9 15 0 8 7 15 15 15 9 0
15 -9 15 -22 0 -19 -2 -20 -11 -8 -8 11 -9 4 -6 -27 5 -40 -10 -72 -26 -56 -4
3 -7 -3 -7 -15 0 -17 6 -22 25 -22 23 0 26 -4 25 -37 0 -21 4 -121 11 -222 9
-152 9 -185 -3 -192 -19 -13 -26 -11 -31 9 -3 9 -6 -17 -7 -58 -2 -71 -3 -73
-11 -30 -4 25 -8 67 -8 93 -1 40 2 49 22 57 21 9 21 10 1 7 -11 -1 -27 3 -35
10 -12 10 -15 -4 -17 -89 -3 -119 -12 -145 -31 -91 -7 21 -16 47 -20 58 -5 11
-14 33 -20 50 -13 30 -28 378 -24 533 1 46 -2 82 -7 82 -5 0 -7 7 -4 15 4 8
10 13 14 10 14 -8 21 27 9 42 -16 18 -49 13 -63 -10 -8 -13 -8 -20 3 -26 10
-7 15 -32 17 -83 3 -117 16 -557 18 -630 l2 -67 -89 -3 -88 -3 7 110 6 110
-72 85 c-39 47 -96 108 -125 135 -43 40 -57 62 -74 114 -30 94 -32 91 54 91
59 0 75 3 75 15 0 8 9 19 20 25 11 6 20 20 20 30 0 11 3 20 8 21 75 8 106 33
96 78 -4 14 -9 29 -11 34 -9 15 -42 6 -73 -19 -29 -25 -30 -27 -14 -45 15 -17
15 -19 1 -19 -9 0 -19 5 -22 10 -10 17 -25 11 -18 -7 5 -16 4 -16 -9 0 -13 17
-19 17 -98 4 -47 -8 -88 -13 -92 -10 -4 2 -15 30 -24 61 -16 53 -36 80 -99
133 -11 9 -29 28 -40 42 -20 26 -45 35 -45 17 0 -5 6 -10 14 -10 7 0 34 -31
58 -70 25 -38 47 -68 49 -66 2 2 4 -8 5 -24 1 -26 -1 -27 -21 -18 -16 7 -28 7
-41 -2 -17 -10 -16 -11 9 -7 15 2 27 0 27 -4 0 -5 7 -9 15 -9 8 0 19 -9 25
-20 6 -11 8 -20 5 -20 -4 0 3 -12 14 -26 26 -33 19 -47 -17 -32 -15 6 -49 15
-76 22 -51 12 -70 31 -39 39 17 4 17 5 -1 6 -11 1 -16 6 -13 15 3 8 -3 31 -14
52 -23 47 -24 51 -1 58 10 3 19 16 19 28 2 17 0 19 -7 9 -20 -34 -69 -5 -55
32 4 8 -11 32 -35 55 -22 23 -40 44 -40 46 0 7 44 -6 60 -18 13 -10 13 -9 1 7
-11 14 -11 17 0 17 9 0 7 7 -7 20 -18 18 -24 19 -54 9 -26 -9 -35 -10 -38 -1
-2 7 -17 12 -32 12 -16 0 -32 5 -35 11 -4 6 -13 8 -21 5 -8 -3 -14 -1 -14 5 0
6 -7 6 -19 -1 -25 -13 -31 -13 -31 0 0 6 7 10 15 10 16 0 19 9 9 34 -4 9 -18
16 -34 16 -16 0 -32 5 -36 11 -3 6 -15 8 -26 6 -17 -5 -19 -2 -13 20 5 23 4
25 -10 13 -8 -7 -18 -10 -22 -6 -3 3 -1 6 5 6 13 0 4 109 -10 127 -6 7 -8 30
-4 50 4 28 3 33 -4 18 -7 -14 -8 -6 -4 30 4 38 3 46 -6 35 -8 -11 -10 6 -6 70
3 59 2 71 -3 40 l-8 -45 -1 53 c-1 28 2 52 7 52 5 0 4 16 -1 38 -14 49 -21
140 -11 127 4 -5 13 -11 20 -12 9 -2 10 4 3 23 -6 14 -10 42 -10 62 0 20 -5
44 -10 52 -8 12 -10 12 -10 1 0 -20 -13 -5 -17 20 -2 14 3 23 16 26 15 4 19
14 19 51 0 26 -2 59 -5 75 -4 26 -7 27 -69 27 -54 0 -64 -3 -65 -17 0 -13 -3
-12 -10 5 -5 13 -7 27 -4 32 3 4 37 7 77 6 60 -1 72 2 76 16 2 10 11 18 18 18
8 0 14 6 14 13 0 17 -162 16 -168 -1 -7 -21 -22 -13 -22 13 0 24 2 24 77 24
49 0 79 4 81 11 3 7 8 5 16 -5 8 -12 11 6 11 80 0 52 -3 95 -7 95 -12 0 -9 43
5 61 7 9 20 18 30 20 28 6 25 24 -5 27 -26 3 -27 5 -25 57 1 30 7 54 12 54 24
-3 35 2 35 15 0 9 -8 12 -24 9 -13 -3 -27 1 -31 8 -6 9 -3 11 9 6 15 -6 17 -1
15 50 -2 37 1 58 9 61 9 3 12 -10 10 -42 0 -25 2 -49 5 -53 4 -3 7 24 7 61 0
50 -4 68 -15 72 -11 5 -12 10 -6 18 7 8 6 65 -4 172 -8 87 -15 162 -15 166 0
4 10 9 22 11 13 2 -65 5 -173 6 l-197 1 5 -47 c2 -27 8 -82 13 -123 19 -151
31 -288 34 -400 2 -63 7 -140 11 -170 4 -30 4 -52 0 -48 -13 12 -24 103 -35
278 -9 151 -33 397 -46 478 l-5 32 -359 0 -359 0 -1 -1561z m877 1509 c-3 -7
-5 -2 -5 12 0 14 2 19 5 13 2 -7 2 -19 0 -25z m113 22 c0 -5 -2 -10 -4 -10 -3
0 -8 5 -11 10 -3 6 -1 10 4 10 6 0 11 -4 11 -10z m50 6 c0 -11 -19 -15 -25 -6
-3 5 1 10 9 10 9 0 16 -2 16 -4z m-50 -91 c0 -17 -2 -18 -25 -9 -13 5 -14 8
-3 15 19 13 28 11 28 -6z m47 -7 c-3 -8 -6 -5 -6 6 -1 11 2 17 5 13 3 -3 4
-12 1 -19z m-17 2 c0 -5 -2 -10 -4 -10 -3 0 -8 5 -11 10 -3 6 -1 10 4 10 6 0
11 -4 11 -10z m1290 -26 c0 -8 -4 -12 -10 -9 -5 3 -10 10 -10 16 0 5 5 9 10 9
6 0 10 -7 10 -16z m-1290 -49 c0 -12 -10 -15 -40 -13 -22 1 -40 6 -40 11 0 5
7 7 15 3 8 -3 15 -1 15 4 0 6 11 10 25 10 16 0 25 -6 25 -15z m30 0 c0 -8 -4
-15 -10 -15 -5 0 -10 7 -10 15 0 8 5 15 10 15 6 0 10 -7 10 -15z m-83 -77 c2
6 16 12 29 12 17 0 24 -6 24 -20 0 -17 -6 -20 -40 -18 -33 1 -40 5 -40 22 0
18 2 19 11 6 8 -11 12 -12 16 -2z m93 -8 c0 -11 -4 -20 -10 -20 -5 0 -10 9
-10 20 0 11 5 20 10 20 6 0 10 -9 10 -20z m-540 -5 c0 -8 -4 -15 -8 -15 -5 0
-9 7 -9 15 0 8 4 15 9 15 4 0 8 -7 8 -15z m440 -65 c0 -5 -5 -10 -11 -10 -5 0
-7 5 -4 10 3 6 8 10 11 10 2 0 4 -4 4 -10z m17 -12 c-3 -8 -6 -5 -6 6 -1 11 2
17 5 13 3 -3 4 -12 1 -19z m43 7 c0 -8 -4 -15 -10 -15 -5 0 -10 7 -10 15 0 8
5 15 10 15 6 0 10 -7 10 -15z m70 -4 c0 -4 -9 -7 -20 -8 -19 -2 -26 8 -14 20
7 7 34 -2 34 -12z m-530 -21 c0 -5 -5 -10 -11 -10 -5 0 -7 5 -4 10 3 6 8 10
11 10 2 0 4 -4 4 -10z m1 -125 c-1 -27 -4 -83 -7 -123 -6 -73 -6 -74 15 -60
11 7 21 18 21 25 0 6 6 13 13 16 7 2 12 21 12 43 2 95 6 137 12 130 4 -4 24
-105 44 -224 29 -174 37 -207 40 -169 2 27 2 50 0 52 -9 9 -10 75 -1 70 6 -4
10 -18 10 -32 0 -31 21 -103 30 -103 3 0 7 -15 8 -32 5 -79 31 -166 44 -146 5
8 8 -2 8 -26 0 -32 -2 -36 -14 -27 -10 8 -16 9 -21 1 -3 -5 1 -13 9 -16 9 -3
16 -13 16 -20 0 -12 -4 -12 -20 -4 -18 9 -20 8 -20 -15 0 -17 8 -29 25 -37 26
-12 25 -31 -2 -21 -11 4 -14 2 -11 -8 3 -8 11 -13 17 -11 13 2 34 -45 26 -58
-3 -5 -12 -7 -20 -3 -11 4 -15 -3 -15 -27 0 -17 4 -29 8 -26 4 2 14 0 22 -5
13 -8 13 -10 1 -18 -7 -5 -10 -14 -7 -20 4 -6 2 -11 -3 -11 -6 0 -11 -16 -11
-36 0 -31 3 -36 20 -31 17 4 20 0 20 -28 0 -20 -6 -35 -15 -39 -8 -3 -16 -16
-16 -28 -1 -19 -3 -18 -9 7 -7 27 -8 25 -9 -17 0 -26 4 -50 9 -53 6 -4 7 -11
4 -17 -11 -18 -14 -181 -3 -194 7 -8 7 -14 -1 -19 -5 -3 -10 -27 -11 -53 0
-42 -1 -44 -10 -22 -6 14 -12 98 -14 187 -2 89 -6 188 -10 220 -13 124 -36
257 -50 289 -14 34 -14 76 -1 124 6 20 1 32 -18 53 -14 16 -26 33 -26 40 0 8
4 6 11 -3 11 -16 9 9 -12 150 -6 36 -13 86 -16 113 l-6 47 -44 0 -45 0 3 -125
c2 -69 1 -125 -3 -125 -5 0 -8 -13 -8 -30 0 -16 -4 -30 -10 -30 -5 0 -10 14
-10 30 0 17 5 30 10 30 6 0 10 5 10 10 0 6 -7 10 -15 10 -17 0 -20 31 -6 46 9
9 18 170 10 178 -2 3 -77 7 -166 9 l-161 5 -2 -46 c0 -26 -1 -77 -1 -114 0
-56 -3 -67 -19 -71 -22 -6 -30 0 -30 22 0 13 2 13 9 3 5 -9 11 7 15 45 4 38 3
59 -4 61 -7 3 -7 8 -2 15 12 15 21 67 15 82 -2 7 -15 10 -29 7 -19 -3 -24 0
-24 17 0 24 3 25 30 9 10 -7 21 -10 23 -8 3 3 8 49 12 102 8 119 9 126 19 135
4 4 5 -45 1 -110 l-7 -118 163 3 164 3 7 93 c3 51 9 104 12 117 6 22 4 23 -34
18 -23 -3 -40 -1 -40 4 0 5 13 8 30 5 22 -3 32 0 37 13 11 29 26 -21 24 -80z
m-146 66 c19 -8 -178 -3 -200 4 -5 2 33 3 85 4 52 0 104 -4 115 -8z m45 -1 c0
-5 -4 -10 -10 -10 -5 0 -10 5 -10 10 0 6 5 10 10 10 6 0 10 -4 10 -10z m620
-6 c0 -8 -4 -12 -10 -9 -5 3 -10 10 -10 16 0 5 5 9 10 9 6 0 10 -7 10 -16z
m-653 -66 c-3 -8 -6 -5 -6 6 -1 11 2 17 5 13 3 -3 4 -12 1 -19z m50 -70 c-3
-8 -6 -5 -6 6 -1 11 2 17 5 13 3 -3 4 -12 1 -19z m0 -65 c-3 -10 -5 -4 -5 12
0 17 2 24 5 18 2 -7 2 -21 0 -30z m1907 22 c3 -9 0 -15 -9 -15 -9 0 -12 6 -9
15 4 8 7 15 9 15 2 0 5 -7 9 -15z m-54 -78 c1 -19 2 -20 13 -7 19 24 57 25 57
2 0 -16 -9 -21 -42 -24 -54 -6 -56 -5 -50 31 5 34 22 32 22 -2z m-1413 -29
c-3 -8 -6 -5 -6 6 -1 11 2 17 5 13 3 -3 4 -12 1 -19z m-877 2 c0 -5 -4 -10
-10 -10 -5 0 -10 5 -10 10 0 6 5 10 10 10 6 0 10 -4 10 -10z m193 -40 c3 -11
1 -20 -4 -20 -5 0 -9 9 -9 20 0 11 2 20 4 20 2 0 6 -9 9 -20z m179 -15 c3 -13
1 -22 -3 -19 -9 5 -13 44 -5 44 2 0 6 -11 8 -25z m1978 5 c0 -5 -4 -10 -10
-10 -5 0 -10 5 -10 10 0 6 5 10 10 10 6 0 10 -4 10 -10z m-2183 -67 c-3 -10
-5 -2 -5 17 0 19 2 27 5 18 2 -10 2 -26 0 -35z m826 30 c-13 -2 -35 -2 -50 0
-16 2 -5 4 22 4 28 0 40 -2 28 -4z m-563 -18 c0 -8 -4 -15 -10 -15 -5 0 -10 7
-10 15 0 8 5 15 10 15 6 0 10 -7 10 -15z m99 -23 c0 -24 -1 -25 -9 -7 -12 28
-12 47 0 40 6 -3 10 -18 9 -33z m-182 -14 c-3 -7 -5 -2 -5 12 0 14 2 19 5 13
2 -7 2 -19 0 -25z m2081 13 c25 -2 -15 -31 -42 -31 -18 0 -26 5 -26 18 0 17 9
19 68 13z m-1413 -22 c12 -18 -4 -23 -67 -21 -48 2 -63 -1 -74 -15 -12 -16
-13 -15 -14 15 l0 32 74 0 c42 0 78 -5 81 -11z m-1030 -32 c-4 -18 -1 -45 4
-60 9 -22 8 -28 -1 -25 -15 5 -22 59 -14 94 9 36 18 29 11 -9z m336 6 c-8 -15
-10 -15 -11 -2 0 17 10 32 18 25 2 -3 -1 -13 -7 -23z m-294 -25 c-3 -7 -5 -2
-5 12 0 14 2 19 5 13 2 -7 2 -19 0 -25z m160 20 c1 -7 4 -33 8 -58 4 -29 2
-40 -3 -30 -13 21 -24 100 -14 100 5 0 9 -6 9 -12z m221 -63 c0 -5 -6 4 -13
20 -8 17 -14 37 -14 45 0 8 7 -1 14 -20 7 -19 13 -39 13 -45z m19 43 c-3 -7
-5 -2 -5 12 0 14 2 19 5 13 2 -7 2 -19 0 -25z m110 0 c-3 -7 -5 -2 -5 12 0 14
2 19 5 13 2 -7 2 -19 0 -25z m243 -5 c0 -32 -5 -28 -14 10 -4 19 -3 26 4 22 5
-3 10 -18 10 -32z m37 -20 c-3 -10 -5 -2 -5 17 0 19 2 27 5 18 2 -10 2 -26 0
-35z m-460 15 c-3 -8 -6 -5 -6 6 -1 11 2 17 5 13 3 -3 4 -12 1 -19z m-223
-117 c-5 -3 -10 -18 -12 -32 -2 -20 2 -28 17 -32 13 -3 21 -14 22 -29 1 -22 1
-21 13 6 l13 28 6 -33 c3 -19 9 -50 12 -69 6 -33 5 -34 -9 -16 -14 17 -15 12
-9 -53 4 -50 3 -71 -6 -71 -6 0 -11 -17 -11 -42 0 -66 -7 -41 -14 47 -3 44 -8
94 -11 110 -4 24 -3 26 4 10 5 -11 10 -15 10 -8 1 7 -7 28 -16 48 -15 31 -15
37 -3 45 13 8 12 10 -2 10 -15 0 -18 -10 -20 -52 -1 -29 -1 -73 0 -97 1 -24
-3 -50 -9 -57 -9 -11 -8 -14 2 -14 12 0 12 -2 0 -9 -10 -6 -12 -24 -9 -65 3
-31 1 -56 -2 -56 -8 0 12 -65 23 -76 4 -4 7 -19 6 -33 -1 -24 -2 -23 -10 7
-18 60 -32 37 -27 -43 3 -41 1 -78 -5 -84 -5 -5 -7 -52 -5 -105 1 -53 0 -96
-4 -96 -3 0 -11 -33 -16 -72 -9 -63 -10 -53 -6 77 3 83 7 168 9 190 6 54 16
229 20 340 3 100 23 341 32 395 l6 35 10 -49 c5 -28 6 -51 1 -55z m35 52 c1
-7 -3 -13 -9 -13 -5 0 -10 15 -9 33 0 27 2 29 9 12 5 -11 9 -26 9 -32z m58 -5
c-3 -7 -5 -2 -5 12 0 14 2 19 5 13 2 -7 2 -19 0 -25z m119 17 c-4 -24 -16 -30
-16 -7 0 12 4 22 9 22 5 0 8 -7 7 -15z m2324 -22 c0 -15 2 -14 15 3 13 18 14
17 15 -18 0 -29 3 -36 15 -32 8 4 15 15 15 25 0 10 4 19 10 19 5 0 8 -12 6
-27 -2 -16 -1 -20 1 -10 9 35 18 8 14 -43 -2 -34 -6 -48 -12 -39 -6 11 -9 10
-15 -4 -11 -30 -24 -18 -24 24 0 24 -4 38 -10 34 -5 -3 -10 -19 -10 -36 0 -25
-4 -29 -28 -29 -27 0 -28 3 -30 48 -2 26 -5 55 -8 64 -3 9 3 21 13 27 26 15
33 13 33 -6z m-1900 -3 c0 -5 -2 -10 -4 -10 -3 0 -8 5 -11 10 -3 6 -1 10 4 10
6 0 11 -4 11 -10z m40 0 c0 -5 -4 -10 -10 -10 -5 0 -10 5 -10 10 0 6 5 10 10
10 6 0 10 -4 10 -10z m-606 -16 c9 -23 8 -24 -19 -24 -16 0 -25 6 -25 16 0 8
5 12 10 9 6 -3 10 -1 10 4 0 17 17 13 24 -5z m2393 -6 c-3 -8 -6 -5 -6 6 -1
11 2 17 5 13 3 -3 4 -12 1 -19z m-2590 6 c-3 -3 -12 -4 -19 -1 -8 3 -5 6 6 6
11 1 17 -2 13 -5z m313 -9 c0 -8 -4 -15 -10 -15 -5 0 -10 7 -10 15 0 8 5 15
10 15 6 0 10 -7 10 -15z m100 -6 c0 -5 -4 -9 -10 -9 -5 0 -10 7 -10 16 0 8 5
12 10 9 6 -3 10 -10 10 -16z m2140 -20 c0 -16 -4 -29 -10 -29 -5 0 -10 16 -10
36 0 21 4 33 10 29 6 -3 10 -19 10 -36z m-1995 12 c3 -6 -10 -7 -32 -4 -50 8
-55 13 -10 13 20 0 38 -4 42 -9z m273 -31 c2 -19 8 -39 13 -44 14 -15 11 -26
-6 -20 -8 4 -15 16 -15 28 0 34 -12 66 -21 60 -5 -3 -9 0 -9 6 0 6 8 10 18 8
11 -2 18 -14 20 -38z m-310 -6 c12 -4 22 -11 22 -16 0 -5 -4 -7 -8 -4 -4 2 -8
-4 -8 -14 0 -10 4 -16 10 -13 9 6 -1 -67 -11 -77 -2 -3 -11 4 -19 15 -14 19
-15 19 -38 -10 -28 -34 -35 -31 -42 17 -5 28 -2 36 12 42 10 4 21 2 25 -5 9
-14 29 -3 29 17 0 8 -9 23 -20 34 l-20 20 23 0 c12 0 32 -3 45 -6z m2082 -30
c0 -13 -4 -24 -10 -24 -5 0 -10 14 -10 31 0 17 4 28 10 24 6 -3 10 -17 10 -31z
m-2390 4 c0 -7 3 -31 7 -53 8 -55 -5 -39 -16 18 -5 27 -5 47 0 47 5 0 9 -6 9
-12z m90 -117 c0 -10 -3 -11 -9 -5 -5 5 -12 38 -15 74 l-6 65 15 -60 c8 -33
14 -67 15 -74z m53 99 c-7 -28 -13 -25 -13 6 0 14 4 23 9 20 5 -3 7 -15 4 -26z
m247 -37 c-14 -65 -35 -111 -26 -54 l6 33 -21 -23 -20 -24 5 23 c17 66 18 69
27 47 7 -19 8 -18 8 3 1 26 20 66 28 59 2 -3 -1 -32 -7 -64z m193 47 c3 -11 1
-23 -4 -26 -5 -3 -9 6 -9 20 0 31 6 34 13 6z m-783 -15 c0 -14 -4 -25 -10 -25
-11 0 -14 33 -3 43 11 11 13 8 13 -18z m915 5 c-7 -12 -65 -10 -65 2 0 4 16 8
36 8 21 0 33 -4 29 -10z m55 0 c0 -5 -9 -10 -20 -10 -11 0 -20 5 -20 10 0 6 9
10 20 10 11 0 20 -4 20 -10z m-903 -52 c-2 -13 -4 -5 -4 17 -1 22 1 32 4 23 2
-10 2 -28 0 -40z m3030 20 c-3 -7 -5 -2 -5 12 0 14 2 19 5 13 2 -7 2 -19 0
-25z m-2844 -45 c4 -18 3 -33 -2 -33 -9 0 -21 50 -20 84 0 20 0 20 8 1 4 -11
11 -35 14 -52z m-283 -15 c0 -34 -4 -48 -9 -38 -8 14 -3 90 5 90 2 0 4 -24 4
-52z m337 30 c-3 -8 -6 -5 -6 6 -1 11 2 17 5 13 3 -3 4 -12 1 -19z m94 -21 c5
-18 3 -26 -4 -24 -7 1 -13 -10 -15 -24 -2 -20 -9 -26 -25 -26 -32 0 -54 65
-29 83 14 10 18 9 23 -4 5 -14 7 -13 13 6 10 29 28 24 37 -11z m-184 -19 c-3
-8 -6 -5 -6 6 -1 11 2 17 5 13 3 -3 4 -12 1 -19z m644 3 c-7 -5 -10 -14 -7
-20 4 -6 2 -11 -3 -11 -15 0 -14 37 2 43 18 6 24 -3 8 -12z m72 6 c4 3 7 -5 7
-19 0 -21 -4 -25 -20 -21 -11 3 -17 10 -13 16 4 6 0 8 -10 4 -20 -8 -22 -1 -4
17 7 9 16 11 23 5 6 -5 14 -6 17 -2z m-154 -57 c0 -23 -1 -23 -9 -5 -5 11 -9
29 -9 40 -1 17 1 17 9 5 5 -8 9 -26 9 -40z m1847 23 c-10 -10 -19 5 -10 18 6
11 8 11 12 0 2 -7 1 -15 -2 -18z m74 2 c1 18 2 18 11 -3 14 -36 -1 -47 -22
-16 -10 15 -15 32 -11 38 3 6 9 0 13 -14 6 -21 7 -22 9 -5z m-2505 -4 c3 -5 1
-12 -5 -16 -5 -3 -10 1 -10 9 0 18 6 21 15 7z m73 -39 c6 -24 6 -42 1 -42 -5
0 -9 6 -9 14 0 7 -3 29 -6 47 -10 48 3 32 14 -19z m-38 28 c0 -5 -4 -10 -10
-10 -5 0 -10 5 -10 10 0 6 5 10 10 10 6 0 10 -4 10 -10z m75 -50 c6 -53 0 -44
-14 19 -5 24 -6 39 -1 35 5 -5 11 -29 15 -54z m-324 26 c5 3 9 -18 9 -46 0
-35 -4 -49 -11 -44 -6 3 -9 19 -7 35 3 15 1 26 -3 24 -9 -6 -19 32 -11 40 4 3
8 1 10 -4 2 -6 8 -9 13 -5z m630 -251 c-3 -238 -2 -265 13 -265 9 0 16 -7 16
-16 0 -15 -2 -15 -21 -2 -21 14 -22 20 -21 243 1 188 5 276 11 303 5 18 5 -39
2 -263z m-407 222 c4 -19 3 -26 -4 -22 -5 3 -10 18 -10 32 0 32 5 28 14 -10z
m35 -17 c0 -10 -3 -8 -9 5 -12 27 -12 43 0 25 5 -8 9 -22 9 -30z m2217 13
c-10 -10 -19 5 -10 18 6 11 8 11 12 0 2 -7 1 -15 -2 -18z m131 -25 c-2 -13 -4
-5 -4 17 -1 22 1 32 4 23 2 -10 2 -28 0 -40z m-2060 -15 c-3 -10 -5 -2 -5 17
0 19 2 27 5 18 2 -10 2 -26 0 -35z m120 25 c-3 -8 -6 -5 -6 6 -1 11 2 17 5 13
3 -3 4 -12 1 -19z m263 2 c0 -5 -11 -10 -25 -10 -14 0 -25 5 -25 10 0 6 11 10
25 10 14 0 25 -4 25 -10z m75 0 c3 -5 -3 -10 -14 -10 -12 0 -21 5 -21 10 0 6
6 10 14 10 8 0 18 -4 21 -10z m1512 -22 c-3 -7 -5 -2 -5 12 0 14 2 19 5 13 2
-7 2 -19 0 -25z m-2148 0 c-2 -35 -13 -63 -26 -65 -7 -2 -13 2 -13 7 0 6 5 10
11 10 7 0 9 9 6 21 -6 24 1 49 14 49 5 0 9 -10 8 -22z m68 0 c-3 -8 -6 -5 -6
6 -1 11 2 17 5 13 3 -3 4 -12 1 -19z m2300 -24 c1 -33 0 -35 -7 -14 -7 23 -8
24 -9 3 -1 -12 -5 -25 -11 -28 -11 -7 -14 67 -3 79 15 15 28 -3 30 -40z
m-2343 -1 c-9 -52 -14 -54 -14 -5 0 23 5 42 10 42 7 0 8 -14 4 -37z m2163 15
c-3 -8 -6 -5 -6 6 -1 11 2 17 5 13 3 -3 4 -12 1 -19z m-1730 -35 c-3 -10 -5
-2 -5 17 0 19 2 27 5 18 2 -10 2 -26 0 -35z m1543 27 c0 -5 -7 -10 -15 -10 -8
0 -15 5 -15 10 0 6 7 10 15 10 8 0 15 -4 15 -10z m113 -20 c-3 -11 -9 -20 -14
-20 -10 0 -12 33 -3 43 12 12 22 -3 17 -23z m-1696 -12 c-3 -7 -5 -2 -5 12 0
14 2 19 5 13 2 -7 2 -19 0 -25z m-587 2 c0 -5 -5 -10 -11 -10 -5 0 -7 5 -4 10
3 6 8 10 11 10 2 0 4 -4 4 -10z m295 -47 c6 -51 -2 -353 -10 -361 -3 -3 -7 -3
-9 -1 -4 4 -9 135 -6 154 1 6 2 65 2 133 0 124 11 160 23 75z m45 -67 c0 -67
4 -117 10 -121 6 -4 8 -11 4 -16 -3 -5 -10 -6 -16 -3 -8 5 -8 -18 -3 -77 5
-46 9 -100 9 -119 1 -19 4 -37 8 -40 4 -3 10 -47 14 -98 5 -71 4 -95 -7 -108
-10 -12 -13 -42 -12 -103 l1 -86 -13 75 -12 75 -2 -94 c0 -52 -4 -92 -7 -88
-10 9 8 917 17 917 5 0 9 -51 9 -114z m-93 98 c-3 -3 -12 -4 -19 -1 -8 3 -5 6
6 6 11 1 17 -2 13 -5z m233 2 c0 -11 -19 -15 -25 -6 -3 5 1 10 9 10 9 0 16 -2
16 -4z m-476 -61 c4 -25 11 -45 17 -45 5 0 9 -7 9 -15 0 -29 -19 -14 -29 23
-22 84 -24 95 -14 89 6 -4 14 -27 17 -52z m-34 36 c0 -6 -4 -13 -10 -16 -5 -3
-10 1 -10 9 0 9 5 16 10 16 6 0 10 -4 10 -9z m217 -13 c-3 -8 -6 -5 -6 6 -1
11 2 17 5 13 3 -3 4 -12 1 -19z m2320 0 c-3 -8 -6 -5 -6 6 -1 11 2 17 5 13 3
-3 4 -12 1 -19z m-1877 -28 c0 -22 -4 -40 -10 -40 -11 0 -14 63 -3 73 11 12
13 8 13 -33z m163 -7 c-4 -28 -6 -28 -69 -28 -63 0 -64 0 -64 27 0 26 2 27 63
30 34 2 65 2 68 1 3 -1 4 -15 2 -30z m1497 23 c0 -8 -4 -18 -10 -21 -5 -3 -10
3 -10 14 0 12 5 21 10 21 6 0 10 -6 10 -14z m-2328 -98 c-9 -30 -10 -27 -10
32 0 59 1 62 10 33 8 -23 8 -43 0 -65z m197 45 l-1 -48 -8 40 c-7 37 -5 55 6
55 2 0 3 -21 3 -47z m21 -109 c-6 -82 -8 -159 -5 -171 3 -12 1 -25 -5 -28 -6
-4 -10 18 -10 60 0 36 -3 64 -7 62 -5 -3 -6 17 -5 44 2 27 8 49 13 49 5 0 9
17 9 39 0 42 10 104 16 98 2 -2 -1 -71 -6 -153z m70 140 c0 -8 -4 -12 -10 -9
-5 3 -10 10 -10 16 0 5 5 9 10 9 6 0 10 -7 10 -16z m-210 -115 c0 -20 -15 -26
-25 -9 -9 15 3 43 15 35 5 -3 10 -15 10 -26z m717 9 c-3 -8 -6 -5 -6 6 -1 11
2 17 5 13 3 -3 4 -12 1 -19z m20 0 c-3 -8 -6 -5 -6 6 -1 11 2 17 5 13 3 -3 4
-12 1 -19z m-788 -26 c0 -24 -1 -25 -9 -7 -12 28 -12 47 0 40 6 -3 10 -18 9
-33z m-62 -14 c-3 -8 -6 -5 -6 6 -1 11 2 17 5 13 3 -3 4 -12 1 -19z m640 -50
c-3 -8 -6 -5 -6 6 -1 11 2 17 5 13 3 -3 4 -12 1 -19z m-620 -45 c-3 -10 -5 -4
-5 12 0 17 2 24 5 18 2 -7 2 -21 0 -30z m-30 -45 c-3 -8 -6 -5 -6 6 -1 11 2
17 5 13 3 -3 4 -12 1 -19z m2346 2 c3 -12 0 -20 -8 -20 -8 0 -11 8 -8 20 3 11
7 20 8 20 1 0 5 -9 8 -20z m87 0 c0 -5 -4 -10 -10 -10 -5 0 -10 5 -10 10 0 6
5 10 10 10 6 0 10 -4 10 -10z m-1520 -68 c0 -13 -5 -22 -11 -20 -6 2 -10 7
-10 11 1 4 1 19 1 35 0 21 2 24 10 12 5 -8 10 -25 10 -38z m-399 -79 c0 -54 2
-116 4 -138 1 -22 -1 -49 -6 -60 -9 -23 -9 -15 -12 177 -1 65 1 118 6 118 4 0
7 -44 8 -97z m1749 87 c0 -5 -2 -10 -4 -10 -3 0 -8 5 -11 10 -3 6 -1 10 4 10
6 0 11 -4 11 -10z m90 -6 c0 -8 -4 -12 -10 -9 -5 3 -10 10 -10 16 0 5 5 9 10
9 6 0 10 -7 10 -16z m-1980 -24 c0 -20 -5 -30 -15 -30 -8 0 -15 5 -15 10 0 6
5 10 10 10 6 0 10 9 10 20 0 11 2 20 5 20 3 0 5 -13 5 -30z m200 15 c0 -8 -2
-15 -4 -15 -2 0 -6 7 -10 15 -3 8 -1 15 4 15 6 0 10 -7 10 -15z m1808 -31 c-3
-23 -9 -27 -40 -30 -34 -3 -38 -1 -38 21 0 19 6 24 33 28 17 2 36 5 40 5 5 1
7 -10 5 -24z m21 -38 c-9 -8 -10 -7 -5 7 3 10 7 24 7 30 1 7 3 4 6 -7 3 -10
-1 -23 -8 -30z m-2369 24 c0 -5 -4 -10 -10 -10 -5 0 -10 5 -10 10 0 6 5 10 10
10 6 0 10 -4 10 -10z m215 -31 c2 -19 0 -41 -5 -49 -7 -11 -10 1 -10 39 0 59
8 64 15 10z m2043 6 c-3 -3 -9 2 -12 12 -6 14 -5 15 5 6 7 -7 10 -15 7 -18z
m-1924 -77 c-4 -51 -8 -101 -8 -110 0 -10 -4 -18 -8 -18 -4 0 -8 50 -8 110 0
92 2 110 15 110 14 0 15 -13 9 -92z m551 82 c3 -5 1 -10 -4 -10 -6 0 -11 5
-11 10 0 6 2 10 4 10 3 0 8 -4 11 -10z m-938 -32 c-3 -8 -6 -5 -6 6 -1 11 2
17 5 13 3 -3 4 -12 1 -19z m945 -40 c2 -13 -3 -43 -10 -68 -9 -28 -12 -70 -8
-113 5 -64 4 -67 -15 -57 -18 10 -27 40 -11 40 4 0 8 46 10 101 1 56 5 105 8
110 10 16 23 9 26 -13z m1375 -15 c-3 -10 -5 -4 -5 12 0 17 2 24 5 18 2 -7 2
-21 0 -30z m-1420 -20 c-3 -10 -5 -2 -5 17 0 19 2 27 5 18 2 -10 2 -26 0 -35z
m-97 11 c0 -14 -4 -23 -10 -19 -5 3 -10 15 -10 26 0 10 5 19 10 19 6 0 10 -12
10 -26z m-536 -30 c9 -22 8 -24 -9 -24 -8 0 -15 9 -15 20 0 24 15 27 24 4z
m-264 -45 c0 -14 -5 -19 -15 -16 -21 9 -27 -6 -32 -81 -7 -99 -15 -90 -12 13
3 81 5 91 24 97 32 10 35 9 35 -13z m-93 -4 c0 -8 -6 -16 -14 -19 -15 -6 -15
-4 -7 18 8 20 21 21 21 1z m134 3 c0 -10 2 -10 6 0 3 8 32 12 93 12 80 0 88
-2 83 -18 -4 -15 -16 -18 -101 -17 -84 0 -97 3 -100 18 -2 9 1 17 7 17 6 0 11
-6 12 -12z m249 -3 c14 -17 14 -17 -17 -20 -17 -2 -23 3 -23 16 0 23 23 25 40
4z m510 0 c-33 -19 -50 -18 -26 0 11 8 27 15 35 15 10 -1 7 -6 -9 -15z m33
-17 c16 -17 20 -48 7 -48 -6 0 -8 5 -4 12 5 8 2 9 -10 5 -14 -5 -17 -3 -12 8
6 18 2 19 -25 5 -10 -6 -19 -7 -19 -2 0 5 10 14 23 20 29 14 27 14 40 0z
m-346 -18 c-3 -11 -2 -20 1 -20 4 0 7 -19 6 -43 0 -23 5 -57 12 -75 7 -18 16
-66 20 -107 6 -64 9 -75 25 -75 11 0 19 -7 19 -15 0 -21 -50 -19 -66 3 -16 21
-18 36 -3 26 8 -5 10 3 7 25 -3 17 0 31 6 31 6 0 5 5 -2 12 -7 7 -12 20 -12
30 0 11 -5 15 -14 12 -19 -7 -27 87 -18 199 1 9 7 17 13 17 6 0 9 -9 6 -20z
m-109 -55 c0 -29 -2 -32 -14 -20 -16 16 -19 39 -4 30 6 -3 10 -2 10 4 0 5 -6
12 -12 14 -8 4 -7 6 4 6 12 1 16 -8 16 -34z m165 -13 c6 -29 5 -31 -8 -18 -16
15 -20 38 -8 49 8 9 9 8 16 -31z m-276 -9 c-3 -10 -5 -4 -5 12 0 17 2 24 5 18
2 -7 2 -21 0 -30z m583 17 c0 -5 -5 -10 -11 -10 -5 0 -7 5 -4 10 3 6 8 10 11
10 2 0 4 -4 4 -10z m-763 -62 c-3 -8 -6 -5 -6 6 -1 11 2 17 5 13 3 -3 4 -12 1
-19z m293 18 c0 -3 -4 -8 -10 -11 -5 -3 -10 -1 -10 4 0 6 5 11 10 11 6 0 10
-2 10 -4z m1880 -11 c0 -8 -4 -15 -10 -15 -5 0 -10 7 -10 15 0 8 5 15 10 15 6
0 10 -7 10 -15z m-2016 -3 c3 -5 -1 -9 -9 -9 -8 0 -12 4 -9 9 3 4 7 8 9 8 2 0
6 -4 9 -8z m313 -34 c-3 -8 -6 -5 -6 6 -1 11 2 17 5 13 3 -3 4 -12 1 -19z
m-616 -45 c-12 -20 -14 -14 -5 12 4 9 9 14 11 11 3 -2 0 -13 -6 -23z m126 -5
c-3 -7 -5 -2 -5 12 0 14 2 19 5 13 2 -7 2 -19 0 -25z m2208 2 c3 -5 1 -10 -4
-10 -6 0 -11 5 -11 10 0 6 2 10 4 10 3 0 8 -4 11 -10z m-2008 -52 c-3 -7 -5
-2 -5 12 0 14 2 19 5 13 2 -7 2 -19 0 -25z m220 10 c-3 -8 -6 -5 -6 6 -1 11 2
17 5 13 3 -3 4 -12 1 -19z m611 -64 l52 -65 -11 -180 c-6 -100 -9 -183 -6
-185 2 -3 42 -14 88 -24 46 -11 94 -24 105 -29 27 -12 36 -61 21 -118 -9 -33
-8 -48 3 -67 11 -22 11 -28 -3 -43 -8 -10 -19 -34 -24 -53 -9 -35 -10 -35 -69
-36 -85 0 -92 3 -96 42 -4 45 -20 48 -29 6 -14 -67 -33 -51 -44 37 l-7 55 -24
-69 c-28 -80 -35 -90 -34 -49 1 16 -4 65 -11 108 l-12 79 -24 -53 c-13 -29
-24 -75 -24 -104 -1 -29 -4 -39 -6 -23 -6 37 -20 34 -29 -5 -6 -32 -7 -32 -15
-10 -5 13 -6 28 -3 33 3 5 5 113 5 239 0 188 2 230 14 230 7 0 21 3 30 6 14 6
16 -9 13 -159 -2 -91 0 -163 5 -160 4 2 7 11 7 19 0 8 7 17 15 20 13 5 15 37
13 213 -1 138 -4 183 -8 136 l-6 -70 -2 78 c-2 67 0 77 14 75 12 -2 23 14 40
60 l24 62 -20 18 c-12 9 -25 18 -30 18 -6 1 -13 2 -17 3 -10 2 30 30 42 31 6
0 34 -30 63 -66z m-611 24 c-3 -8 -6 -5 -6 6 -1 11 2 17 5 13 3 -3 4 -12 1
-19z m1400 16 c-3 -3 -12 -4 -19 -1 -8 3 -5 6 6 6 11 1 17 -2 13 -5z m-1470
-46 c-3 -8 -6 -5 -6 6 -1 11 2 17 5 13 3 -3 4 -12 1 -19z m523 12 c0 -5 -7
-10 -16 -10 -8 0 -12 5 -9 10 3 6 10 10 16 10 5 0 9 -4 9 -10z m609 -22 c6
-18 7 -28 2 -23 -10 12 -25 55 -18 55 3 0 10 -15 16 -32z m-949 1 c0 -6 -4 -7
-10 -4 -5 3 -10 11 -10 16 0 6 5 7 10 4 6 -3 10 -11 10 -16z m270 1 c0 -11 -4
-20 -10 -20 -5 0 -10 9 -10 20 0 11 5 20 10 20 6 0 10 -9 10 -20z m1010 0 c0
-5 -5 -10 -11 -10 -5 0 -7 5 -4 10 3 6 8 10 11 10 2 0 4 -4 4 -10z m-864 -30
c15 0 18 -9 6 -25 -9 -14 -28 -13 -43 2 -9 9 -8 15 2 26 8 8 16 11 17 6 2 -5
10 -9 18 -9z m-506 -35 c0 -8 5 -15 11 -15 6 0 9 7 5 15 -3 8 -1 15 3 15 9 0
21 -24 21 -41 0 -4 -6 -6 -13 -3 -11 4 -13 -12 -11 -78 1 -46 0 -72 -2 -58
-21 111 -30 180 -23 180 5 0 9 -7 9 -15z m-103 -102 c-3 -10 -5 -2 -5 17 0 19
2 27 5 18 2 -10 2 -26 0 -35z m137 32 c-4 -8 -8 -15 -10 -15 -2 0 -4 7 -4 15
0 8 4 15 10 15 5 0 7 -7 4 -15z m3 -77 c-2 -13 -4 -5 -4 17 -1 22 1 32 4 23 2
-10 2 -28 0 -40z m-162 24 c-3 -3 -15 -6 -27 -7 -20 -2 -20 -1 -3 11 17 13 43
9 30 -4z m585 -37 c0 -14 -4 -25 -10 -25 -5 0 -10 11 -10 25 0 14 5 25 10 25
6 0 10 -11 10 -25z m-560 -25 c0 -16 -5 -30 -11 -30 -6 0 -26 -12 -44 -27 -18
-16 -53 -39 -76 -53 -24 -14 -97 -78 -161 -143 -110 -111 -117 -117 -128 -97
-13 24 -13 24 68 115 67 75 150 147 242 209 58 40 73 46 85 36 12 -10 15 -9
15 4 0 9 2 16 5 16 3 0 5 -13 5 -30z m137 -12 c-3 -8 -6 -5 -6 6 -1 11 2 17 5
13 3 -3 4 -12 1 -19z m23 -34 c0 -34 -4 -53 -10 -49 -5 3 -10 1 -10 -4 0 -6 4
-11 9 -11 5 0 9 -25 9 -55 0 -30 -5 -52 -9 -49 -5 3 -9 17 -9 31 0 14 -5 43
-12 65 -9 32 -9 41 1 48 8 4 10 13 7 19 -4 6 -2 11 3 11 6 0 11 11 11 25 0 14
2 25 5 25 3 0 5 -25 5 -56z m1757 -51 c-3 -10 -5 -2 -5 17 0 19 2 27 5 18 2
-10 2 -26 0 -35z m-1440 15 c-3 -8 -6 -5 -6 6 -1 11 2 17 5 13 3 -3 4 -12 1
-19z m-469 -23 c-3 -3 -9 2 -12 12 -6 14 -5 15 5 6 7 -7 10 -15 7 -18z m276
-17 c3 -13 5 -34 5 -48 0 -22 -1 -22 -8 -6 -7 17 -10 16 -31 -15 -13 -19 -27
-36 -30 -39 -17 -13 -59 -98 -52 -105 4 -4 2 -5 -5 -2 -6 4 -22 -11 -37 -38
-15 -25 -31 -45 -37 -45 -6 0 -7 -4 -4 -10 3 -5 2 -17 -3 -26 -8 -14 -10 -12
-16 10 -5 19 3 44 31 97 21 40 43 79 48 88 108 169 126 186 139 139z m193 -35
c-3 -10 -5 -2 -5 17 0 19 2 27 5 18 2 -10 2 -26 0 -35z m1702 0 c51 -57 173
-241 169 -255 -2 -6 -26 24 -52 66 -27 41 -54 72 -59 69 -6 -4 -8 0 -4 10 4
10 2 16 -6 14 -7 -1 -11 4 -9 11 1 8 -2 11 -8 7 -5 -3 -22 12 -37 34 -16 22
-36 43 -45 46 -20 7 -25 45 -5 45 6 0 32 -21 56 -47z m-1702 -75 c-2 -13 -4
-5 -4 17 -1 22 1 32 4 23 2 -10 2 -28 0 -40z m-24 0 c2 -7 -6 -28 -20 -46 -13
-17 -21 -37 -17 -43 3 -6 2 -14 -3 -18 -5 -3 -27 -35 -48 -70 -35 -59 -39 -63
-48 -43 -10 23 -11 21 38 107 19 33 42 75 52 93 17 33 38 42 46 20z m1539 -73
c66 -83 88 -124 79 -147 -5 -14 -12 -8 -35 30 -16 26 -37 56 -47 67 -9 11 -19
29 -21 40 -2 11 -6 18 -9 15 -3 -3 -19 10 -34 28 -23 27 -26 35 -14 42 8 5 16
6 19 2 4 -4 31 -38 62 -77z m-1515 23 c-3 -8 -6 -5 -6 6 -1 11 2 17 5 13 3 -3
4 -12 1 -19z m0 -40 c-3 -8 -6 -5 -6 6 -1 11 2 17 5 13 3 -3 4 -12 1 -19z
m739 -27 c22 -16 51 -32 64 -36 37 -9 52 -48 38 -100 l-12 -43 -103 -1 c-70
-1 -103 2 -103 10 0 18 63 199 70 199 3 0 24 -13 46 -29z m671 -123 c0 -39 0
-40 -13 -17 l-13 24 -1 -29 c0 -16 -3 -27 -6 -23 -3 3 -3 29 1 57 5 39 10 48
20 40 7 -5 12 -29 12 -52z m-810 -64 c-3 -3 -12 -4 -19 -1 -8 3 -5 6 6 6 11 1
17 -2 13 -5z m-130 -26 c-3 -8 -6 -5 -6 6 -1 11 2 17 5 13 3 -3 4 -12 1 -19z
m73 2 c0 -5 -7 -10 -16 -10 -8 0 -12 5 -9 10 3 6 10 10 16 10 5 0 9 -4 9 -10z
m-53 -22 c3 6 9 9 15 6 5 -4 57 -6 114 -5 67 1 104 -2 104 -9 0 -6 -58 -10
-170 -10 -118 0 -170 3 -170 11 0 6 6 9 13 6 6 -2 21 -1 32 3 11 4 28 2 39 -4
14 -8 20 -8 23 2z m-387 -14 c0 -2 -21 -4 -47 -3 -32 0 -42 3 -29 8 18 7 76 3
76 -5z m170 8 c0 -5 -35 -9 -77 -9 -67 0 -71 1 -28 6 91 11 105 11 105 3z m60
-2 c0 -5 -5 -10 -11 -10 -5 0 -7 5 -4 10 3 6 8 10 11 10 2 0 4 -4 4 -10z m613
3 c-7 -2 -19 -2 -25 0 -7 3 -2 5 12 5 14 0 19 -2 13 -5z m226 3 c-10 -8 -89
-13 -83 -5 3 5 24 9 46 9 23 0 39 -2 37 -4z m101 -6 c0 -5 -10 -10 -22 -10
-19 0 -20 2 -8 10 19 13 30 13 30 0z m-1343 -16 c-3 -3 -12 -4 -19 -1 -8 3 -5
6 6 6 11 1 17 -2 13 -5z m450 -66 c-3 -8 -6 -5 -6 6 -1 11 2 17 5 13 3 -3 4
-12 1 -19z m83 18 c0 -3 -4 -8 -10 -11 -5 -3 -10 -1 -10 4 0 6 5 11 10 11 6 0
10 -2 10 -4z m80 -6 c0 -5 -2 -10 -4 -10 -3 0 -8 5 -11 10 -3 6 -1 10 4 10 6
0 11 -4 11 -10z m80 -30 c0 -5 -5 -10 -11 -10 -5 0 -7 5 -4 10 3 6 8 10 11 10
2 0 4 -4 4 -10z m120 -20 l155 -1 3 -47 c3 -61 -14 -88 -52 -78 -27 7 -28 9
-24 61 1 30 0 55 -4 55 -9 0 -10 -5 -12 -69 -1 -52 -26 -71 -26 -21 0 39 -23
36 -28 -3 -6 -51 -22 -27 -22 33 0 33 -4 60 -8 60 -4 0 -8 -12 -7 -27 0 -20
-7 -31 -22 -38 -14 -6 -23 -18 -23 -32 0 -13 -4 -23 -10 -23 -5 0 -10 26 -12
58 -3 54 -4 57 -30 60 -28 3 -28 3 -28 -57 0 -67 -18 -83 -37 -33 l-11 27 -1
-27 c-1 -18 -7 -28 -16 -28 -12 0 -15 14 -17 63 l-2 62 -3 -63 c-5 -81 -26
-79 -34 4 -5 57 -6 58 -7 12 -3 -65 -10 -78 -42 -78 -33 0 -40 14 -40 80 0 57
-1 56 125 53 44 0 150 -2 235 -3z m-862 -7 c-10 -2 -28 -2 -40 0 -13 2 -5 4
17 4 22 1 32 -1 23 -4z m145 0 c-18 -2 -48 -2 -65 0 -18 2 -4 4 32 4 36 0 50
-2 33 -4z m165 -6 c12 -8 17 -73 6 -101 -7 -19 -45 -21 -62 -4 -7 7 -13 32
-14 58 l-1 45 -6 -55 c-5 -47 -9 -55 -29 -58 -22 -3 -42 22 -27 36 4 4 10 1
12 -6 9 -25 20 -1 16 34 -2 21 -2 42 0 48 5 13 86 15 105 3z m81 -24 c24 -91
24 -93 7 -93 -9 0 -16 7 -16 15 0 8 -7 15 -15 15 -8 0 -15 -7 -15 -15 0 -8 -5
-15 -11 -15 -8 0 -9 15 -4 48 5 26 8 55 9 65 1 34 35 19 45 -20z m89 25 c7 -7
12 -37 12 -69 0 -56 0 -56 -27 -51 -35 6 -53 28 -53 65 0 56 37 86 68 55z
m628 6 c12 -3 28 -20 37 -37 l16 -32 0 32 c1 17 -5 33 -11 36 -7 3 -3 4 10 4
20 -1 22 -6 22 -64 0 -71 -19 -87 -38 -30 l-10 32 -1 -33 c-2 -57 -25 -32 -32
34 -3 32 -6 53 -7 47 -1 -7 -11 -13 -22 -13 -27 0 -25 -16 2 -23 21 -6 18 -22
-4 -22 -21 0 -20 -26 1 -32 31 -8 25 -23 -9 -23 l-30 0 0 65 c0 64 0 65 28 65
15 0 36 -3 48 -6z m114 -59 c0 -37 -4 -65 -10 -65 -11 0 -12 4 -14 77 -1 37 3
53 12 53 8 0 12 -20 12 -65z m44 50 c-4 -8 -3 -15 1 -15 3 0 13 7 21 15 25 25
34 17 16 -14 -14 -25 -15 -35 -5 -62 15 -38 7 -52 -13 -25 -14 20 -14 20 -28
0 -19 -25 -31 -12 -16 16 12 22 10 47 -5 83 -5 13 -2 17 14 17 14 0 19 -5 15
-15z m-1046 -142 c-10 -2 -26 -2 -35 0 -10 3 -2 5 17 5 19 0 27 -2 18 -5z m79
1 c-3 -3 -12 -4 -19 -1 -8 3 -5 6 6 6 11 1 17 -2 13 -5z m40 0 c-3 -3 -12 -4
-19 -1 -8 3 -5 6 6 6 11 1 17 -2 13 -5z m61 -1 c-10 -2 -26 -2 -35 0 -10 3 -2
5 17 5 19 0 27 -2 18 -5z m85 0 c-7 -2 -21 -2 -30 0 -10 3 -4 5 12 5 17 0 24
-2 18 -5z m140 0 c-24 -2 -62 -2 -85 0 -24 2 -5 4 42 4 47 0 66 -2 43 -4z
m125 0 c-16 -2 -40 -2 -55 0 -16 2 -3 4 27 4 30 0 43 -2 28 -4z m-101 -159
c-3 -3 -12 -4 -19 -1 -8 3 -5 6 6 6 11 1 17 -2 13 -5z m136 -1 c-24 -2 -62 -2
-85 0 -24 2 -5 4 42 4 47 0 66 -2 43 -4z m-401 -250 c-2 -163 -6 -228 -18
-259 -21 -58 -71 -79 -129 -52 -37 17 -55 57 -55 123 l0 55 35 0 35 0 0 -50
c0 -37 4 -52 16 -57 9 -3 20 0 25 8 5 8 9 112 9 232 l0 217 43 0 42 0 -3 -217z
m195 178 c13 -19 23 -44 23 -57 0 -13 5 -26 10 -29 6 -4 10 18 10 59 l0 66 40
0 40 0 1 -87 c0 -88 0 -88 13 -46 8 23 17 62 20 86 l7 44 139 2 c76 1 141 -2
144 -7 3 -6 24 -5 49 1 56 12 109 3 144 -27 24 -21 28 -32 31 -96 4 -62 1 -76
-17 -101 -22 -29 -22 -29 -2 -57 16 -22 20 -47 23 -137 l3 -110 -28 1 c-60 2
-57 -3 -57 100 0 98 -10 134 -35 134 -12 0 -15 -21 -15 -115 l0 -115 -46 0
-46 0 5 253 c3 138 3 242 0 230 -4 -21 -10 -23 -59 -23 l-54 0 -1 -37 c-5
-127 -7 -118 29 -121 29 -3 32 -6 32 -37 0 -31 -3 -34 -32 -37 l-33 -3 -3 -77
-3 -78 55 0 56 0 0 -40 0 -40 -95 0 -95 0 -1 263 c-1 242 -4 267 -23 162 -2
-16 -10 -55 -17 -85 -10 -47 -9 -74 10 -189 12 -74 20 -135 19 -136 -2 -1 -18
-5 -35 -8 -37 -7 -32 -21 -60 138 l-18 100 -5 -120 -5 -120 -37 -3 -38 -4 0
198 c0 211 -7 261 -11 80 -3 -127 -15 -214 -32 -235 -7 -8 -27 -20 -45 -28
-50 -21 -97 -3 -122 47 -18 35 -20 60 -20 210 0 234 17 274 115 268 44 -3 52
-7 72 -37z m-42 -606 c0 -45 -26 -61 -45 -26 -16 31 -2 73 24 69 17 -2 21 -10
21 -43z m65 29 c0 -14 -3 -14 -15 -4 -13 11 -15 8 -15 -19 0 -17 5 -31 10 -31
6 0 10 5 10 11 0 5 4 8 10 4 14 -9 0 -35 -20 -35 -25 0 -43 64 -23 83 13 13
43 7 43 -9z m53 -21 c-8 -52 -23 -66 -23 -22 0 19 -5 40 -12 47 -9 9 -6 12 14
12 25 0 26 -2 21 -37z m73 13 c9 -38 -4 -68 -29 -64 -23 3 -35 43 -23 74 9 24
45 17 52 -10z m59 -21 c0 -34 -3 -40 -22 -43 -21 -3 -23 1 -23 43 0 42 2 46
23 43 19 -3 22 -9 22 -43z m45 35 c-13 -9 -13 -11 0 -20 13 -9 13 -11 0 -21
-11 -8 -12 -12 -2 -16 19 -8 14 -23 -8 -23 -17 0 -20 7 -20 45 0 40 2 45 23
45 18 0 19 -2 7 -10z m77 -37 c2 -24 -2 -43 -7 -43 -6 0 -10 9 -10 20 0 11 -4
20 -10 20 -5 0 -10 -9 -10 -21 0 -11 -4 -17 -10 -14 -5 3 -10 24 -10 46 0 38
2 40 28 37 24 -3 27 -7 29 -45z m85 12 c2 -19 0 -41 -4 -48 -6 -9 -8 -9 -8 1
0 6 -7 12 -15 12 -18 0 -19 11 -3 45 16 34 25 31 30 -10z"/>
<path d="M605 4230 c-3 -5 -1 -10 4 -10 6 0 11 5 11 10 0 6 -2 10 -4 10 -3 0
-8 -4 -11 -10z"/>
<path d="M731 3955 c0 -16 4 -39 9 -50 7 -17 9 -16 9 10 0 17 -4 39 -9 50 -7
17 -9 16 -9 -10z"/>
<path d="M711 3954 c0 -11 3 -14 6 -6 3 7 2 16 -1 19 -3 4 -6 -2 -5 -13z"/>
<path d="M721 3874 c0 -11 3 -14 6 -6 3 7 2 16 -1 19 -3 4 -6 -2 -5 -13z"/>
<path d="M760 3857 c0 -14 5 -29 10 -32 7 -4 8 3 4 22 -9 38 -14 42 -14 10z"/>
<path d="M775 3630 c3 -5 11 -10 16 -10 6 0 7 5 4 10 -3 6 -11 10 -16 10 -6 0
-7 -4 -4 -10z"/>
<path d="M771 3444 c0 -11 3 -14 6 -6 3 7 2 16 -1 19 -3 4 -6 -2 -5 -13z"/>
<path d="M2712 3820 c0 -19 2 -27 5 -17 2 9 2 25 0 35 -3 9 -5 1 -5 -18z"/>
<path d="M400 3624 c0 -8 5 -12 10 -9 6 3 10 10 10 16 0 5 -4 9 -10 9 -5 0
-10 -7 -10 -16z"/>
<path d="M570 2905 c0 -19 4 -35 9 -35 5 0 9 16 8 35 -1 19 -5 35 -9 35 -4 0
-8 -16 -8 -35z"/>
<path d="M577 2853 c-11 -10 -8 -28 8 -49 13 -18 14 -17 15 19 0 35 -8 46 -23
30z"/>
<path d="M187 1892 c-42 -43 -62 -72 -38 -58 11 7 94 106 89 106 -2 0 -25 -22
-51 -48z"/>
<path d="M1440 1420 c0 -27 5 -50 10 -50 6 0 10 23 10 50 0 28 -4 50 -10 50
-5 0 -10 -22 -10 -50z"/>
<path d="M1581 1440 c6 -16 12 -30 13 -30 2 0 3 14 3 30 0 18 -6 30 -13 30
-10 0 -11 -7 -3 -30z"/>
<path d="M1789 1468 c-7 -24 -5 -38 7 -38 8 0 14 9 14 20 0 11 -4 20 -10 20
-5 0 -10 -1 -11 -2z"/>
<path d="M1874 1446 c-9 -23 0 -69 14 -74 8 -2 12 9 12 37 0 41 -16 64 -26 37z"/>
<path d="M1700 1435 c0 -8 5 -15 10 -15 6 0 10 7 10 15 0 8 -4 15 -10 15 -5 0
-10 -7 -10 -15z"/>
<path d="M1180 1415 c0 -46 14 -60 25 -26 7 23 -4 71 -16 71 -5 0 -9 -20 -9
-45z"/>
<path d="M1271 1414 c0 -11 3 -14 6 -6 3 7 2 16 -1 19 -3 4 -6 -2 -5 -13z"/>
<path d="M1355 1448 c-3 -9 -5 -31 -3 -50 l4 -33 12 25 c9 18 10 33 4 50 -8
21 -11 22 -17 8z"/>
<path d="M1392 1048 c-13 -13 -18 -331 -6 -362 3 -9 15 -16 25 -16 19 0 19 9
17 192 -3 189 -8 214 -36 186z"/>
<path d="M2030 981 c0 -62 3 -81 14 -81 27 0 37 28 34 92 -3 57 -5 63 -25 66
-22 3 -23 1 -23 -77z"/>
<path d="M1565 985 c-21 -17 -25 -24 -14 -25 16 0 56 37 48 45 -3 2 -18 -7
-34 -20z"/>
<path d="M1417 514 c-10 -10 -9 -54 2 -54 5 0 11 6 14 13 6 16 -7 50 -16 41z"/>
<path d="M1600 490 c0 -16 5 -30 10 -30 6 0 10 14 10 30 0 17 -4 30 -10 30 -5
0 -10 -13 -10 -30z"/>
<path d="M1665 510 c-3 -5 -1 -10 4 -10 6 0 11 5 11 10 0 6 -2 10 -4 10 -3 0
-8 -4 -11 -10z"/>
<path d="M1660 470 c0 -5 5 -10 10 -10 6 0 10 5 10 10 0 6 -4 10 -10 10 -5 0
-10 -4 -10 -10z"/>
<path d="M1780 505 c0 -8 5 -15 10 -15 6 0 10 7 10 15 0 8 -4 15 -10 15 -5 0
-10 -7 -10 -15z"/>
<path d="M1875 489 c-4 -6 -5 -12 -2 -15 2 -3 7 2 10 11 7 17 1 20 -8 4z"/>
<path d="M1072 3821 c-11 -7 -11 -9 2 -14 10 -4 16 -1 16 8 0 17 -1 17 -18 6z"/>
<path d="M1083 3743 c-18 -7 -16 -23 2 -23 8 0 15 7 15 15 0 8 -1 15 -2 14 -2
0 -9 -3 -15 -6z"/>
<path d="M2353 3684 c-3 -8 -1 -20 6 -27 8 -8 11 -4 11 16 0 30 -7 35 -17 11z"/>
<path d="M1088 3593 c-24 -6 -23 -23 2 -23 11 0 20 7 20 15 0 8 -1 14 -2 14
-2 -1 -11 -3 -20 -6z"/>
<path d="M1063 3474 c-29 -12 -12 -30 22 -26 21 3 34 9 32 16 -4 12 -35 18
-54 10z"/>
<path d="M2326 3377 c3 -10 9 -15 12 -12 3 3 0 11 -7 18 -10 9 -11 8 -5 -6z"/>
<path d="M1070 3206 c0 -15 3 -16 14 -7 8 7 21 11 30 9 8 -2 15 2 15 7 1 6
-12 10 -29 10 -23 0 -30 -5 -30 -19z"/>
<path d="M1270 2934 c0 -17 22 -14 28 4 2 7 -3 12 -12 12 -9 0 -16 -7 -16 -16z"/>
<path d="M1194 2925 c-11 -27 1 -33 19 -9 16 21 16 24 2 24 -9 0 -18 -7 -21
-15z"/>
<path d="M1280 2895 c-22 -23 -22 -25 -4 -25 25 0 66 29 59 41 -10 16 -31 10
-55 -16z"/>
<path d="M1326 2859 c-16 -16 -37 -29 -47 -29 -11 0 -19 -5 -19 -11 0 -7 11
-9 33 -5 17 4 39 8 48 9 10 1 15 7 11 16 -3 9 -1 12 6 7 8 -5 12 1 12 18 0 33
-8 32 -44 -5z"/>
<path d="M20 1760 c0 -5 5 -10 11 -10 5 0 7 5 4 10 -3 6 -8 10 -11 10 -2 0 -4
-4 -4 -10z"/>
<path d="M5 1700 c-3 -6 1 -7 9 -4 18 7 21 14 7 14 -6 0 -13 -4 -16 -10z"/>
</g>
</svg>
